<svg id="Layer_1" data-name="Layer 1" xmlns="http://www.w3.org/2000/svg" viewBox="0 0 320 320"><defs><style>.cls-1{fill:transparent;}.cls-2{fill:#fff;}</style></defs><circle class="cls-1" cx="160" cy="160" r="150"/><path class="cls-2" d="M146,142.91v19c-22.51,7.32-26.81,11.69-30.53,31H96.34C93.14,168.2,119.54,141.39,146,142.91Z"/><path class="cls-2" d="M177.2,86.21v13l-.39,39.66q.15,27.23,0,54.44c-.11,15-10.4,27-25.12,29.76-1.62.3-3.2.78-4.69,1.15v19.44c11.18.46,20.88-3.32,30.29-9.6,11.32-7.57,20-17.37,20-26.92,0-9.27,0-21.8,0-32.53,0-.13,0-.24,0-.36V76.81Z"/></svg>