<svg id="Layer_1" data-name="Layer 1" xmlns="http://www.w3.org/2000/svg" viewBox="0 0 320 75"><defs><style>.cls-1{fill:#008cff;}</style></defs><path class="cls-1" d="M87.9,69V62.17a15,15,0,0,1-5.76,5.3,17.09,17.09,0,0,1-8,1.79,19.93,19.93,0,0,1-10.5-2.84,20.25,20.25,0,0,1-7.46-7.84,22.79,22.79,0,0,1-2.73-11.1,23.17,23.17,0,0,1,2.68-11.09,20,20,0,0,1,18-10.69,16.81,16.81,0,0,1,7.94,1.82,15.51,15.51,0,0,1,5.8,5.32V29.61L96.26,26V69ZM68.05,35.27a12.42,12.42,0,0,0-4.71,5,15.24,15.24,0,0,0-1.68,7.23,15.24,15.24,0,0,0,1.68,7.23,12.3,12.3,0,0,0,4.68,5,12.78,12.78,0,0,0,6.82,1.82,13,13,0,0,0,6.8-1.8,12.27,12.27,0,0,0,4.71-5A15.16,15.16,0,0,0,88,47.48a15.3,15.3,0,0,0-1.68-7.21,12.59,12.59,0,0,0-4.68-5,13.37,13.37,0,0,0-6.83-1.77A13,13,0,0,0,68.05,35.27Z"/><path class="cls-1" d="M130,68A21.66,21.66,0,0,1,121.05,70q-7.55,0-11.37-4.16t-3.82-12.3V33.88H97.63l3.64-7.73h4.59V16.6L114.5,13V26.15h15.33l-3.64,7.73H114.5V53.3a9.44,9.44,0,0,0,1.93,6.32,6.74,6.74,0,0,0,5.44,2.28A16.32,16.32,0,0,0,130,59.44Z"/><path class="cls-1" d="M165.75,69V62.17a15,15,0,0,1-5.75,5.3,17.12,17.12,0,0,1-8,1.79,20,20,0,0,1-10.51-2.84,20.32,20.32,0,0,1-7.46-7.84,22.89,22.89,0,0,1-2.72-11.1A23.05,23.05,0,0,1,134,36.39a20,20,0,0,1,7.46-7.87A20.2,20.2,0,0,1,152,25.7,16.77,16.77,0,0,1,160,27.52a15.43,15.43,0,0,1,5.8,5.32V29.61L174.12,26V69ZM145.9,35.27a12.49,12.49,0,0,0-4.71,5,15.24,15.24,0,0,0-1.68,7.23,15.24,15.24,0,0,0,1.68,7.23,12.39,12.39,0,0,0,4.69,5,12.76,12.76,0,0,0,6.82,1.82,13,13,0,0,0,6.8-1.8,12.4,12.4,0,0,0,4.71-5,15.16,15.16,0,0,0,1.68-7.19,15.3,15.3,0,0,0-1.68-7.21,12.68,12.68,0,0,0-4.69-5,13.31,13.31,0,0,0-6.82-1.77A13,13,0,0,0,145.9,35.27Z"/><path class="cls-1" d="M213.07,28.56a20,20,0,0,1,7.48,7.87,23.19,23.19,0,0,1,2.68,11.14,23.09,23.09,0,0,1-2.68,11.1A20.14,20.14,0,0,1,202.5,69.4a16.87,16.87,0,0,1-7.87-1.79,15.47,15.47,0,0,1-5.78-5.3v6.91h-8.36V5.6l8.36,3.55V32.84a15.39,15.39,0,0,1,5.78-5.3,16.75,16.75,0,0,1,7.87-1.8A20.32,20.32,0,0,1,213.07,28.56Zm-18,6.8a12.49,12.49,0,0,0-4.71,5,15.24,15.24,0,0,0-1.68,7.23,15.24,15.24,0,0,0,1.68,7.23,12.23,12.23,0,0,0,4.73,5,12.69,12.69,0,0,0,6.78,1.82,13.08,13.08,0,0,0,6.84-1.8,12.29,12.29,0,0,0,4.71-5,15.24,15.24,0,0,0,1.68-7.23,15.24,15.24,0,0,0-1.68-7.23,12.6,12.6,0,0,0-4.68-5,13.44,13.44,0,0,0-6.87-1.77A13.13,13.13,0,0,0,195.06,35.36Z"/><path class="cls-1" d="M237.83,15.38v7.18l-8.64,3.64V19Zm0,10.32V68.81h-8.64V29.34Z"/><path class="cls-1" d="M271.12,68A21.68,21.68,0,0,1,262.2,70q-7.54,0-11.37-4.16T247,53.49V33.88h-8.24l3.64-7.73H247V16.6L255.66,13V26.15H271l-3.64,7.73H255.66V53.3a9.44,9.44,0,0,0,1.93,6.32A6.73,6.73,0,0,0,263,61.9a16.32,16.32,0,0,0,8.1-2.46Z"/><path class="cls-1" d="M275.76,57.9a20.91,20.91,0,0,0,6.32,3.25,27.27,27.27,0,0,0,8.23,1.11,18,18,0,0,0,7.91-1.5q3-1.5,3-4,0-4-7.73-5.23l-4.46-.68q-6.82-1.05-10.35-4.14a10.18,10.18,0,0,1-3.52-8,10.85,10.85,0,0,1,2.32-6.88A14.88,14.88,0,0,1,284,27.2a25.81,25.81,0,0,1,9.32-1.59,34.71,34.71,0,0,1,13.6,2.54l-.14,8.28a30.63,30.63,0,0,0-6.23-2.55,24.61,24.61,0,0,0-6.91-1,16.68,16.68,0,0,0-4.8.66,8.75,8.75,0,0,0-3.52,1.89A4,4,0,0,0,284,38.25a3.46,3.46,0,0,0,1.77,3.16,17.18,17.18,0,0,0,5.59,1.75l4.42.77q7.19,1.27,10.7,4.28a9.93,9.93,0,0,1,3.53,8,10.54,10.54,0,0,1-2.55,7,16.23,16.23,0,0,1-7.18,4.67,30.55,30.55,0,0,1-10.37,1.63,36.89,36.89,0,0,1-7.28-.75,28.31,28.31,0,0,1-7.09-2.43l.14-8.23Z"/><path class="cls-1" d="M29.42,30.75v7.39C20.66,41,19,42.68,17.55,50.2H10.1C8.86,40.59,19.13,30.16,29.42,30.75Z"/><path class="cls-1" d="M41.55,8.71v5l-.16,15.42c0,7.06,0,14.12,0,21.17a11.67,11.67,0,0,1-9.77,11.57c-.62.12-1.24.31-1.82.45v7.56c4.35.18,8.12-1.29,11.78-3.73,4.4-2.94,7.76-6.76,7.76-10.47s0-8.48,0-12.65a.68.68,0,0,0,0-.14V5.05Z"/></svg>